# xmcd
#
# Track frame offsets:
# 150
# 16662
# 36970
# 55025
# 72967
# 87637
# 113120
# 130955
# 150002
# 170490
# 187152
# 209730
# 224777
#
# Disc length: 3281 seconds
#
#
# Revision: 0
# Processed by: cddbd v1.5.1PL0 Copyright (c) Steve Scherf et al.
# Submitted via: FreeRIP 2.941 
#
DISCID=bd0ccf0d
DTITLE=Elton John Mania
DYEAR=2000
DGENRE=Blues
TTITLE0=Candle in the wind
TTITLE1=Rocket man
TTITLE2=Daniel
TTITLE3=Your song
TTITLE4=Goodbya yellow brick road
TTITLE5=Don't let the sun go down on me
TTITLE6=Crocodile rock
TTITLE7=Saturday night's
TTITLE8=Little Jeanie
TTITLE9=Sorry seems to be
TTITLE10=Nikita
TTITLE11=Blue eyes
TTITLE12=A word in spanish
EXTD=
EXTT0=
EXTT1=
EXTT2=
EXTT3=
EXTT4=
EXTT5=
EXTT6=
EXTT7=
EXTT8=
EXTT9=
EXTT10=
EXTT11=
EXTT12=
PLAYORDER=
